<?xml version="1.0" encoding="utf-8"?>
<!-- Generator: Adobe Illustrator 23.0.2, SVG Export Plug-In . SVG Version: 6.00 Build 0)  -->
<svg version="1.1" id="Réteg_1" xmlns="http://www.w3.org/2000/svg" xmlns:xlink="http://www.w3.org/1999/xlink" x="0px" y="0px"
	 viewBox="0 0 597.7 573" style="enable-background:new 0 0 597.7 573;" xml:space="preserve">
<style type="text/css">
	.st0{fill:#FFFFFF;stroke:#FFFFFF;stroke-width:8;stroke-linecap:round;stroke-linejoin:round;stroke-miterlimit:10;}
	.st1{fill:#FFFFFF;}
</style>
<g>
	<path class="st0" d="M574.1,267c0.2,0,0.4,0,0.6,0c-4.6-68.1-33.3-131.5-82-180.2C439.3,33.4,368.3,4,292.9,4S146.5,33.4,93.1,86.7
		c-48.7,48.7-77.4,112.1-82,180.2c0.2,0,0.4,0,0.6,0c0.1,0,0.3,0,0.4,0c4.6-67.8,33.2-131,81.7-179.5C147,34.3,217.7,5,292.9,5
		s145.9,29.3,199,82.5C540.5,136,569,199.1,573.6,267C573.8,267,573.9,267,574.1,267z"/>
	<path class="st0" d="M536.6,429.1c-0.3,0-0.7,0-0.9,0c-12,20.6-26.4,39.1-43.8,56.4c-53.2,53.2-123.8,82.4-199,82.4
		s-145.9-29.3-199-82.4c-17.2-17.2-31.8-36-43.8-56.4c0,0-0.2,0-0.3,0c-0.4,0-0.6,0-1,0c12.1,20.7,26.9,39.7,44.3,57.1
		c53.4,53.4,124.3,82.7,199.7,82.7s146.4-29.4,199.7-82.7c17.5-17.5,32.2-36.2,44.3-57.1C536.8,429.1,536.7,429.1,536.6,429.1z"/>
	<g>
		<g>
			<g>
				<path class="st1" d="M101.6,182.2c1.4,7.9,2.8,15.8,3.9,23.3c0.3,2.5,2.5,5.1,2.4,7.7c-0.6,3-2.9,4.3-5.7,6.5
					c-2.4,1.5-4.9,3.1-9.3,5.2c-1,0.5-2.1,0.6-3.1,0.2c-8-2.7-17.3-11.5-12.6-19.3c1.3-2,3-3.8,4.1-5.7c4.4-7.6,10.3-14.1,17.5-19.3
					C99.9,180.2,101.5,180.9,101.6,182.2L101.6,182.2z"/>
				<path class="st1" d="M126.6,112.8c1,5.8,2,11.5,2.8,17.1c0.2,1.9,1.8,3.7,1.8,5.6c-0.5,2.1-2.1,3.1-4.2,4.7
					c-1.7,1.1-3.6,2.3-6.8,3.8c-0.7,0.4-1.5,0.4-2.3,0.2c-5.9-2-12.7-8.4-9.2-14.1c1-1.5,2.2-2.8,3-4.1c3.2-5.6,7.5-10.3,12.8-14.1
					C125.4,111.3,126.5,111.9,126.6,112.8L126.6,112.8z"/>
			</g>
			<g>
				<path class="st1" d="M484.1,182.2c-1.4,7.9-2.8,15.8-3.9,23.3c-0.3,2.5-2.5,5.1-2.4,7.7c0.6,3,2.9,4.3,5.7,6.5
					c2.3,1.5,4.9,3.1,9.3,5.2c1,0.5,2.1,0.6,3.1,0.2c8-2.7,17.3-11.5,12.6-19.3c-1.3-2-3-3.8-4.1-5.7c-4.4-7.6-10.3-14.1-17.5-19.3
					C485.9,180.2,484.3,180.9,484.1,182.2L484.1,182.2z"/>
				<path class="st1" d="M459.1,112.8c-1,5.8-2,11.5-2.8,17.1c-0.2,1.9-1.8,3.7-1.8,5.6c0.5,2.1,2.1,3.1,4.2,4.7
					c1.7,1.1,3.6,2.3,6.8,3.8c0.7,0.4,1.5,0.4,2.3,0.2c5.9-2,12.7-8.4,9.2-14.1c-1-1.5-2.2-2.8-3-4.1c-3.2-5.6-7.5-10.3-12.8-14.1
					C460.4,111.3,459.2,111.9,459.1,112.8L459.1,112.8z"/>
			</g>
		</g>
		<g>
			<g>
				<path class="st1" d="M355.8,267c1.1-9.6,1.3-15.9,1.3-15.9s0-48.8-19.2-65.3c0,0-26.3-8.1-28.2-10.8l-13.5,16.8
					c0,0-2,2.5-3.4,4.2c-1.3-1.7-3.4-4.2-3.4-4.2L276,175c-1.9,2.7-28.2,10.8-28.2,10.8c-19.2,16.5-19.2,65.3-19.2,65.3
					s0.2,6.3,1.3,15.9H355.8z"/>
				<path class="st1" d="M225.2,267h9.7c-0.7-5.4-1.3-10.6-1.7-15.2c-0.1-0.8-0.1-2.2-0.1-3c0.4-17.2,1.9-35.2,9.2-51
					c1.8-3.7,4-7.1,6.8-9.9c8.8-3.2,17.7-6.1,25.9-10.6c0.3-0.2,0.5-0.3,0.7-0.5c5.5,6.3,11.4,12.9,17,19.1
					c-5.2-7.3-10.7-15-16.1-22.2l-1.9,0.4c-0.1,0,0,0-0.1,0.1c-0.1,0.1-0.2,0.1-0.3,0.2c-4.1,2.1-8.6,3.3-13,4.7
					c-4.9,1.5-9.9,3-14.9,4.3c-4,3.2-7.2,7.2-9.6,11.5c-8.8,16.4-11.6,35.2-12.8,53.5c0,1.1-0.1,2.6-0.1,3.7
					C224.4,256.9,224.7,261.9,225.2,267z"/>
				<path class="st1" d="M336.5,188c2.8,2.8,5,6.2,6.8,9.9c5.6,11.7,7.5,24.9,8.6,37.8c0.4,5.4,0.7,10.8,0.5,16.1
					c-0.4,4.5-0.9,9.7-1.7,15.2h9.8c0.5-5.8,0.8-11.4,1-16.7c-1.1-20.6-5.4-52.5-22-66.4l-0.5-0.4l-0.5-0.1
					c-4.8-1.3-9.7-2.7-14.5-4.2c-4.5-1.5-9.2-2.6-13.3-4.9l-1.9-0.4l-0.2,0.3c-5.3,7.1-10.7,14.7-15.8,21.9
					c5.6-6.2,11.5-12.8,17-19.1C318.2,181.8,327.5,184.6,336.5,188z"/>
			</g>
			<g>
				<g>
					<path class="st1" d="M230,267c-1.4-27,0.2-61.5,14-82.7c0,0-27.1-1.9-48.5-15.7c0,0-4.3,4.9-9.4,13.6
						c-15.3,26.1-19.6,56.1-12.9,84.8L230,267L230,267z"/>
					<path class="st1" d="M179.4,267c-6.9-27.9-2.7-56.8,11.9-81.8c2.1-3.7,4.1-6.6,5.7-8.7c13.6,7.6,28.3,11.1,37.5,12.6
						c-10.5,22.4-11.8,53.2-10.6,77.9H236c-1.4-26.2,0-59.5,13-79.5c1.2-1.8,1.3-4,0.3-5.9c-1-1.9-2.8-3.2-5-3.3
						c-0.3,0-25.9-2-45.7-14.8c-2.5-1.6-5.8-1.1-7.8,1.1c-0.2,0.2-4.7,5.4-10,14.5c-15.7,26.9-20.6,57.8-13.9,87.9L179.4,267
						L179.4,267z"/>
				</g>
				<g>
					<path class="st1" d="M355.8,267h56.8c6.7-28.7,2.3-58.7-12.9-84.8c-5.1-8.7-9.4-13.6-9.4-13.6c-21.4,13.8-48.5,15.7-48.5,15.7
						C355.5,205.4,357.1,240,355.8,267z"/>
					<path class="st1" d="M349.7,267h12.1c1.2-24.7,0-55.6-10.6-77.9c9.2-1.5,23.9-5,37.5-12.6c1.5,2.1,3.5,5.1,5.7,8.7
						c14.6,25,18.8,53.9,11.9,81.8h12.3c6.7-30.1,1.8-61-13.9-87.9c-5.3-9.1-9.8-14.3-10-14.5c-2-2.3-5.3-2.7-7.8-1.1
						c-19.8,12.8-45.4,14.7-45.7,14.8c-2.1,0.1-4,1.4-5,3.3c-1,1.9-0.8,4.2,0.3,6C349.7,207.4,351.1,240.8,349.7,267z"/>
				</g>
			</g>
			<g>
				<g>
					
						<ellipse transform="matrix(8.248058e-02 -0.9966 0.9966 8.248058e-02 84.6581 373.9539)" class="st1" cx="245.4" cy="141" rx="57.7" ry="57.7"/>
					<path class="st1" d="M245.4,204.7c-35.1,0-63.7-28.6-63.7-63.7s28.6-63.7,63.7-63.7s63.7,28.6,63.7,63.7
						S280.6,204.7,245.4,204.7z M245.4,89.3c-28.5,0-51.7,23.2-51.7,51.7s23.2,51.7,51.7,51.7s51.7-23.2,51.7-51.7
						S273.9,89.3,245.4,89.3z"/>
				</g>
				<g>
					<circle class="st1" cx="340.3" cy="141" r="57.7"/>
					<path class="st1" d="M340.3,204.7c-35.1,0-63.7-28.6-63.7-63.7s28.6-63.7,63.7-63.7S404,105.9,404,141S375.5,204.7,340.3,204.7
						z M340.3,89.3c-28.5,0-51.7,23.2-51.7,51.7s23.2,51.7,51.7,51.7S392,169.5,392,141S368.8,89.3,340.3,89.3z"/>
				</g>
			</g>
			<g>
				<g>
					<circle class="st1" cx="245.4" cy="141" r="31"/>
					<path class="st1" d="M245.4,178c-20.4,0-37-16.6-37-37s16.6-37,37-37s37,16.6,37,37C282.4,161.4,265.8,178,245.4,178z
						 M245.4,116c-13.8,0-25,11.2-25,25s11.2,25,25,25c13.8,0,25-11.2,25-25C270.4,127.2,259.2,116,245.4,116z"/>
				</g>
				<g>
					<circle class="st1" cx="340.3" cy="140.6" r="31"/>
					<path class="st1" d="M340.3,177.5c-20.4,0-37-16.6-37-37s16.6-37,37-37s37,16.6,37,37S360.7,177.5,340.3,177.5z M340.3,115.6
						c-13.8,0-25,11.2-25,25s11.2,25,25,25c13.8,0,25-11.2,25-25S354.1,115.6,340.3,115.6z"/>
				</g>
			</g>
			<g>
				<path class="st1" d="M292.9,137.6c1.2,1,2.4,2,2.4,2s11.6,9.8,14,32.3c0,0,2.1,9.4-11.2,27.4c0,0-3.4,5.2-5.2,8
					c-1.8-2.8-5.2-8-5.2-8c-13.3-18-11.2-27.4-11.2-27.4c2.5-22.5,14-32.3,14-32.3S291.7,138.6,292.9,137.6z"/>
				<path class="st1" d="M292.9,213.4L292.9,213.4c-2,0-3.9-1-5-2.7l-5.1-7.9c-13.3-18.1-12.7-28.9-12.2-31.7
					c2.7-24.5,15.6-35.5,16.1-36l2.4-2c2.2-1.9,5.5-1.9,7.7,0l2.4,2c0.5,0.5,13.4,11.5,16.1,36c0.5,2.9,1.1,13.6-12.2,31.7l-5.1,7.9
					C296.8,212.3,294.9,213.4,292.9,213.4z M282.3,173.1c-0.1,1.1-0.1,8.8,10.2,22.6c0.1,0.1,0.2,0.2,0.2,0.3l0.2,0.3l0.2-0.3
					c0.1-0.1,0.1-0.2,0.2-0.3c10.3-13.9,10.2-21.6,10.2-22.6c-0.1-0.2,0-0.2-0.1-0.5c-1.6-15.1-7.6-23.6-10.5-26.8
					c-2.8,3.2-8.8,11.7-10.5,26.8C282.4,172.9,282.4,172.9,282.3,173.1z M303.5,173.2L303.5,173.2L303.5,173.2z M282.3,173.2
					L282.3,173.2L282.3,173.2z M276.4,171.9L276.4,171.9L276.4,171.9z"/>
			</g>
			<g>
				<path class="st1" d="M292.9,100.5c-1-1.1-2-2.1-2-2.1c-9.8-10.4-86.2-29.9-86.2-29.9c-62.8-13-18.5,15.8-18.5,15.8
					s7.9,5.6,60.3,31.5l45,22c0,0,0.7,0.4,1.5,0.7c0.7-0.4,1.5-0.7,1.5-0.7l45-22c52.4-25.9,60.3-31.5,60.3-31.5
					s44.2-28.7-18.5-15.8c0,0-76.3,19.4-86.2,29.9C294.9,98.3,293.9,99.4,292.9,100.5z"/>
				<path class="st1" d="M292.9,145.1l-49.1-24c-49.4-24.4-59.5-31-61-32c-0.7-0.4-4.9-3.2-8.8-6.6c-3.1-2.6-11.3-9.7-8.3-17
					c3.1-7.6,14-8.4,40.3-3l0.3,0.1c0.2,0,19.4,5,39.6,11.1c32.3,9.8,43,15.4,47.1,18.4c4.1-3,14.7-8.6,47.1-18.4
					c20.2-6.1,39.5-11,39.6-11.1l0.3-0.1c26.2-5.4,37.2-4.6,40.3,3c3,7.3-5.2,14.4-8.3,17c-4,3.4-8.2,6.2-8.8,6.6
					c-1.5,1-11.6,7.5-61,31.9L292.9,145.1z M179.2,71.1c2.4,2.4,6.3,5.6,10.2,8.1l0.2,0.1c0.3,0.2,9.1,6.1,59.4,31l43.8,21.4
					l43.8-21.4c50.3-24.9,59.1-30.8,59.4-31.1l0.2-0.1c3.9-2.5,7.8-5.7,10.2-8.1c-3.7-0.1-10.8,0.5-24.1,3.2
					c-36.7,9.3-77.7,22.4-83.1,28.1l-6.4,6.8l-6.4-6.8c-5.4-5.7-46.5-18.8-83.1-28.1C190,71.6,182.9,71.1,179.2,71.1z"/>
			</g>
			<g>
				<circle class="st1" cx="248.4" cy="134.2" r="18"/>
				<circle class="st1" cx="337.4" cy="134.2" r="18"/>
			</g>
			<g>
				<circle class="st1" cx="335.4" cy="130" r="5.9"/>
				<circle class="st1" cx="250.4" cy="130" r="5.9"/>
			</g>
			<g>
				<path class="st1" d="M325.5,216.2c-1.7,5.3-4.2,10.3-7.5,14.9c-1.3,1.7-2.1,3.9-3.7,5.3c-3.4,2.5-7.7,3-11.8,1.2
					c-0.4-0.2-0.6-0.6-0.5-1.1c0.3-2.2,0.8-3.6,1.3-5c1-2.5,2.1-4.6,4.6-5.7c1.2-0.5,2.4-1,3.5-1.6l6.5-4.3c2.2-1.4,4.4-3,6.7-4.5
					C325,215.1,325.6,215.6,325.5,216.2L325.5,216.2z"/>
				<path class="st1" d="M261.3,215.5c3.9,2.6,9.3,6.2,13.2,8.7c2,1.3,4.9,1.7,6.2,3.9c1.8,2.6,2.6,5,3.2,8.5c0.1,0.4-0.2,0.8-0.5,1
					c-1.9,0.9-3.8,1.1-5.4,1c-2.4-0.2-4.6-0.8-6.4-2.3c-1.7-1.4-2.5-3.7-3.7-5.3c-3.3-4.6-5.8-9.6-7.5-14.9
					C260.1,215.6,260.8,215.1,261.3,215.5L261.3,215.5z"/>
			</g>
			<g>
				<g>
					<path class="st1" d="M312.1,252.4c-0.8,3.3-2.2,6.4-4.2,9.2c-1,1.3-1.6,3.6-3.6,3.7c-2.5,0.2-4.6-0.8-6.7-2.9
						c-0.3-0.3-0.4-0.7-0.4-1.1c0.1-1.9,0.3-3,0.5-4.1c0.3-1.3,0.5-2.3,1.4-3c0.9-0.4,2.2,0,3.1-0.3c1.3-0.4,2.8-0.7,4.3-1
						c1.5-0.3,3.1-0.8,4.7-1.1C311.8,251.4,312.2,251.9,312.1,252.4L312.1,252.4z"/>
					<path class="st1" d="M336.2,253.7c-1.3,3.2-3.3,6-5.7,8.3c-1.2,1.1-2.2,3.3-4.2,3c-2.5-0.3-4.4-1.5-6-4
						c-0.2-0.4-0.3-0.8-0.2-1.2c0.4-1.8,0.8-3,1.2-4c0.6-1.3,0.9-2.2,1.9-2.7c1-0.3,2.2,0.4,3.1,0.2c1.4-0.1,2.8-0.2,4.4-0.3
						c1.6-0.1,3.2-0.2,4.8-0.3C336,252.8,336.4,253.3,336.2,253.7L336.2,253.7z"/>
				</g>
				<g>
					<path class="st1" d="M275,251.6c3,0.7,6,1.4,8.9,2.2c1,0.3,2.2-0.1,3.1,0.3c1,0.7,1.1,1.7,1.4,3c0.2,1.1,0.4,2.2,0.5,4.1
						c0,0.4-0.1,0.8-0.4,1.1c-2,2.2-4.1,3.1-6.7,2.9c-2-0.1-2.6-2.4-3.6-3.7c-2.1-2.7-3.5-5.8-4.2-9.2
						C274,251.9,274.5,251.4,275,251.6L275,251.6z"/>
					<path class="st1" d="M250.7,252.8c3.1,0.2,6.2,0.3,9.2,0.6c0.7,0.1,1.5-0.2,2.2-0.3c0.7-0.1,1.3,0,1.7,0.6
						c1.3,1.8,1.7,3.5,2.4,6.2c0.1,0.4,0,0.8-0.2,1.1c-1,1.6-2.1,2.4-3.1,3.1c-1.8,1-3.9,1.5-5.3,0c-1.6-2.1-3.6-3.6-5.1-5.8
						c-0.9-1.4-1.8-2.8-2.5-4.5C249.8,253.3,250.2,252.7,250.7,252.8L250.7,252.8z"/>
				</g>
			</g>
			<path class="st1" d="M201.3,202.3c0.5,3.1,1.1,6.1,1.5,9.1c0.1,1,1,2,0.9,3c-0.3,1.1-1.1,1.7-2.2,2.5c-0.9,0.6-1.9,1.2-3.6,2
				c-0.4,0.2-0.8,0.2-1.2,0.1c-3.1-1.1-6.7-4.5-4.9-7.5c0.5-0.8,1.2-1.5,1.6-2.2c1.7-3,4-5.5,6.8-7.5
				C200.7,201.5,201.3,201.8,201.3,202.3L201.3,202.3z"/>
			<path class="st1" d="M209.1,225.8c1.5,2.7,3.1,5.4,4.5,8c0.4,0.9,1.6,1.5,1.9,2.5c0.2,1.2-0.5,2-1.3,3.1
				c-0.7,0.9-1.4,1.8-2.7,3.1c-0.3,0.3-0.7,0.5-1.1,0.5c-3,0-5.1-1-6.7-2.9c-1.3-1.5,0-3.5,0.3-5.1c0.6-3.3,1.9-6.5,3.9-9.3
				C208.2,225.2,208.9,225.3,209.1,225.8L209.1,225.8z"/>
			<path class="st1" d="M193.1,242.7c1.9,2.5,3.8,4.9,5.6,7.3c0.5,0.8,1.8,1.3,2.2,2.2c0.3,1.1-0.2,2-0.8,3.3c-0.5,1-1.1,2-2.2,3.5
				c-0.2,0.3-0.6,0.6-1,0.6c-3,0.4-5.2-0.2-7-2c-1.5-1.4-0.5-3.5-0.5-5.1c0.1-3.4,1-6.7,2.5-9.8
				C192.1,242.4,192.8,242.3,193.1,242.7L193.1,242.7z"/>
			<g>
				<path class="st1" d="M385.5,201.8c2.8,2,5.1,4.5,6.8,7.5c0.8,1.4,2.7,2.8,2,4.7c-0.8,2.4-2.5,3.9-5.3,5
					c-0.4,0.1-0.8,0.1-1.2-0.1c-1.7-0.8-2.8-1.5-3.7-2.1c-1.1-0.8-2-1.4-2.2-2.5c0-1,0.8-2,0.9-3c0.2-1.4,0.4-2.8,0.7-4.3
					c0.3-1.5,0.5-3.1,0.8-4.8C384.5,201.8,385.1,201.5,385.5,201.8L385.5,201.8z"/>
				<path class="st1" d="M377.8,225.7c2,2.8,3.3,6,3.9,9.3c0.3,1.6,1.6,3.6,0.3,5.1c-1.6,2-3.7,2.9-6.7,2.9c-0.4,0-0.8-0.2-1.1-0.4
					c-1.3-1.3-2.1-2.3-2.8-3.2c-0.8-1.2-1.4-2-1.3-3.1c0.3-1,1.5-1.6,1.9-2.5c0.6-1.2,1.3-2.5,2.1-3.8c0.8-1.3,1.5-2.8,2.4-4.2
					C376.9,225.3,377.5,225.3,377.8,225.7L377.8,225.7z"/>
				<path class="st1" d="M393.9,242.8c1.5,3.1,2.4,6.4,2.5,9.8c0.1,1.6,1,3.8-0.5,5.1c-1.8,1.7-4,2.3-7,2c-0.4-0.1-0.8-0.3-1-0.6
					c-1.1-1.5-1.8-2.6-2.3-3.5c-0.6-1.3-1.1-2.1-0.8-3.3c0.5-0.9,1.7-1.4,2.2-2.2c0.8-1.1,1.7-2.3,2.6-3.5c1-1.2,1.9-2.5,3-3.8
					C393,242.3,393.7,242.4,393.9,242.8L393.9,242.8z"/>
			</g>
		</g>
	</g>
	<g>
		<path class="st1" d="M32.4,294.4c11.5,0,20.6,2.3,27.5,7c6.8,4.7,10.2,11.6,10.2,20.8c0,6.8-1.7,12.5-5,17
			c-3.4,4.5-7.9,8-13.6,10.2s-12.3,3.4-19.7,3.4l-3.5-11.7c9.1,0,17.2,1.3,24.2,3.8s12.6,6.1,16.7,10.7c4.1,4.7,6.1,10.2,6.1,16.7
			c0,6-1.1,11.1-3.2,15.2c-2.1,4.2-5,7.5-8.7,10c-3.6,2.5-7.8,4.4-12.4,5.5c-4.6,1.2-9.4,1.7-14.3,1.7H0V294.4L32.4,294.4
			L32.4,294.4z M35,339.6c4.3,0,7.5-1.3,9.5-3.9c2-2.6,3.1-5.5,3.1-8.8c0-3.8-1.3-6.7-3.8-8.5c-2.5-1.9-6-2.8-10.3-2.8H21.8v24.2
			L35,339.6L35,339.6z M35.7,384.6c3.2,0,6.1-0.4,8.7-1.3c2.6-0.8,4.6-2.2,6.1-4s2.3-4.2,2.3-7c0-3.2-0.9-5.6-2.7-7.3
			c-1.8-1.7-4.1-2.8-7-3.5c-2.9-0.7-5.8-1-8.9-1H21.7v24H35.7z"/>
		<path class="st1" d="M79.3,404.8l49.8-114.8h1.2l49.8,114.8h-25.2l-31.8-80.7l15.8-10.8l-38.1,91.5H79.3z M113.4,364.9h33.1
			l7.6,18.3h-47.5L113.4,364.9z"/>
		<path class="st1" d="M279.7,393.7c-1.3,1.4-3.3,2.8-6.2,4.3c-2.8,1.5-6,2.8-9.7,4c-3.7,1.2-7.4,2.2-11.2,2.9s-7.4,1.1-10.8,1.1
			c-9,0-17.1-1.3-24.3-4c-7.2-2.7-13.3-6.3-18.5-11.1c-5.1-4.8-9-10.4-11.7-16.9c-2.7-6.5-4-13.6-4-21.3c0-10.1,1.5-18.9,4.6-26.3
			c3-7.5,7.2-13.7,12.5-18.6c5.3-5,11.3-8.6,18.1-11c6.8-2.4,14-3.6,21.5-3.6c7.1,0,13.6,0.8,19.5,2.3c5.9,1.5,10.9,3.5,15,5.8
			l-7,20.3c-1.8-1-4.2-2-7.2-3s-6-1.8-9.2-2.5c-3.1-0.7-5.8-1-8.3-1c-6,0-11.3,0.8-15.9,2.3c-4.6,1.5-8.5,3.8-11.6,6.8
			s-5.5,6.7-7.1,11.2c-1.6,4.5-2.4,9.6-2.4,15.5c0,5.2,0.9,9.9,2.7,14s4.3,7.7,7.6,10.6c3.3,2.9,7.1,5.1,11.5,6.6s9.4,2.3,14.8,2.3
			c3.1,0,6-0.2,8.5-0.7c2.6-0.5,4.8-1.2,6.6-2.2v-13.3h-19v-21h41.1L279.7,393.7L279.7,393.7z"/>
		<path class="st1" d="M296.2,349.8c0-7.6,1.5-14.8,4.3-21.6c2.9-6.8,6.9-12.8,12.1-18.1s11.1-9.4,17.9-12.4
			c6.8-3,14.1-4.5,21.9-4.5c7.7,0,15,1.5,21.8,4.5s12.8,7.1,18.1,12.4s9.3,11.3,12.3,18.1c3,6.8,4.4,14,4.4,21.6
			c0,7.8-1.5,15.1-4.4,21.9c-3,6.8-7,12.8-12.3,17.9c-5.3,5.2-11.3,9.2-18.1,12.1c-6.8,2.9-14,4.3-21.8,4.3
			c-7.8,0-15.1-1.5-21.9-4.3c-6.8-2.9-12.8-6.9-17.9-12.1c-5.2-5.2-9.2-11.1-12.1-17.9C297.7,364.9,296.2,357.6,296.2,349.8z
			 M318.7,349.8c0,4.9,0.9,9.5,2.6,13.7c1.8,4.3,4.2,8,7.3,11.3c3.2,3.3,6.8,5.8,11,7.6s8.7,2.7,13.6,2.7c4.7,0,9.1-0.9,13.1-2.7
			s7.6-4.3,10.6-7.6c3-3.3,5.3-7,7-11.3s2.5-8.8,2.5-13.7c0-5-0.9-9.7-2.6-14c-1.8-4.3-4.2-8.1-7.2-11.3c-3-3.3-6.6-5.8-10.7-7.6
			c-4.1-1.8-8.5-2.7-13.3-2.7s-9.3,0.9-13.3,2.7s-7.7,4.3-10.8,7.6s-5.5,7-7.2,11.3C319.6,340.1,318.7,344.8,318.7,349.8z"/>
		<path class="st1" d="M429.3,294.4H451v89.4h51.9v21h-73.7V294.4z"/>
		<path class="st1" d="M534.6,370.5l-40.7-76h26.8l28.5,57.3l-6.5,0.5l28-57.8h26.8l-41.4,76v34.3h-21.8L534.6,370.5L534.6,370.5z"
			/>
	</g>
	<g>
		<g>
			<path class="st1" d="M237.3,454.6v51.8h-12.5v-51.8H237.3z M232.6,454.6h10.1c4.4,0,8.1,0.7,11.1,2s5.2,3.3,6.8,5.8
				s2.3,5.5,2.3,9.1c0,3.5-0.8,6.5-2.3,9c-1.5,2.5-3.8,4.5-6.8,5.8c-3,1.4-6.7,2-11.1,2h-10.1v-10.3h10.1c2.5,0,4.5-0.6,5.9-1.7
				s2.2-2.8,2.2-4.9c0-2.2-0.7-3.8-2.2-5c-1.4-1.1-3.4-1.7-5.9-1.7h-10.1V454.6z"/>
			<path class="st1" d="M283,454.6v33.9c0,2.6,0.7,4.7,2.1,6.4c1.4,1.6,3.5,2.4,6.2,2.4c2.8,0,4.9-0.8,6.3-2.4s2.1-3.8,2.1-6.4
				v-33.9h12.5v34.8c0,3.3-0.5,6.1-1.6,8.5s-2.5,4.4-4.4,6c-1.9,1.5-4.1,2.7-6.7,3.5c-2.5,0.8-5.3,1.2-8.2,1.2s-5.6-0.4-8.1-1.2
				s-4.7-2-6.6-3.5s-3.4-3.5-4.4-6c-1.1-2.4-1.6-5.3-1.6-8.5v-34.8H283z"/>
			<path class="st1" d="M332.1,475.1h8.4c1.4,0,2.7-0.2,3.7-0.7c1-0.4,1.8-1.1,2.3-1.9c0.5-0.8,0.8-1.8,0.8-3c0-1.8-0.6-3.1-1.8-4
				c-1.2-0.9-2.9-1.3-5-1.3h-5.2v32.4h6.4c1.6,0,3.1-0.2,4.4-0.6c1.3-0.4,2.3-1.1,3.1-2.1s1.2-2.3,1.2-4c0-1.1-0.2-2-0.7-2.8
				c-0.4-0.8-1.1-1.4-1.8-1.9s-1.7-0.8-2.7-1.1c-1-0.2-2.1-0.3-3.4-0.3h-9.5v-6.8h11c2.5,0,5,0.3,7.3,0.8s4.5,1.4,6.4,2.6
				c1.9,1.2,3.5,2.7,4.6,4.6c1.2,1.8,1.7,4.1,1.7,6.7c0,3.5-0.8,6.2-2.5,8.4c-1.7,2.1-4,3.7-7,4.7s-6.6,1.5-10.7,1.5h-20.3v-51.8h19
				c3.6,0,6.8,0.5,9.5,1.4s4.9,2.4,6.5,4.4c1.6,2,2.4,4.4,2.4,7.4c0,2.7-0.8,5-2.4,7c-1.6,1.9-3.8,3.4-6.5,4.4s-5.9,1.5-9.5,1.5
				h-9.7L332.1,475.1L332.1,475.1z"/>
		</g>
		<g>
			<path class="st1" d="M419.1,471.5c-2.1,5.1-5.2,9.6-9.3,13.4c-1.9,1.8-3.5,5.2-6.7,4.8c-4-0.4-7.1-2.5-9.8-6.5
				c-0.4-0.6-0.5-1.3-0.3-1.9c0.7-3,1.3-4.8,1.9-6.4c0.9-2,1.4-3.6,3.1-4.4c1.6-0.4,3.5,0.6,5.1,0.4c2.2-0.2,4.6-0.4,7-0.5
				c2.5-0.1,5.1-0.4,7.8-0.5C418.8,469.9,419.4,470.7,419.1,471.5L419.1,471.5z"/>
			<path class="st1" d="M167.8,469.9c5,0.3,10,0.6,14.8,1c1.1,0.1,2.4-0.2,3.5-0.4c1.1-0.2,2,0,2.7,0.9c2.1,2.9,2.7,5.6,3.8,10
				c0.1,0.7,0,1.3-0.3,1.8c-1.6,2.5-3.3,3.9-5,4.9c-2.9,1.6-6.3,2.5-8.6,0c-2.6-3.3-5.9-5.8-8.2-9.4c-1.5-2.3-2.9-4.6-4-7.2
				C166.3,470.7,167,469.8,167.8,469.9L167.8,469.9z"/>
		</g>
	</g>
</g>
</svg>
